<?xml version="1.0" encoding="UTF-8" standalone="no"?>
<!-- Created with Inkscape (http://www.inkscape.org/) -->

<svg
   width="103.41351mm"
   height="103.41299mm"
   viewBox="0 0 103.41351 103.41299"
   version="1.1"
   id="svg1"
   xml:space="preserve"
   xmlns:xlink="http://www.w3.org/1999/xlink"
   xmlns="http://www.w3.org/2000/svg"
   xmlns:svg="http://www.w3.org/2000/svg">
  <defs
   id="defs1"><linearGradient
   id="swatch9"><stop
     style="stop-color:#a9a9a9;stop-opacity:1;"
     offset="0"
     id="stop9" /></linearGradient><linearGradient
   id="swatch8"
   gradientTransform="matrix(0.05725314,0,0,0.05725314,5.0707721,7.5886506)"><stop
     style="stop-color:#000000;stop-opacity:1;"
     offset="0"
     id="stop8" /></linearGradient><linearGradient
   id="swatch7"><stop
     style="stop-color:#ffffff;stop-opacity:1;"
     offset="0"
     id="stop7" /></linearGradient>
    <clipPath
   clipPathUnits="userSpaceOnUse"
   id="clipPath5">
      <path
   id="path5"
   style="stroke-width:0.1;stroke-linecap:square;paint-order:markers fill stroke;stop-color:#000000"
   d="M 438.25066,553.76374 H 1298.1212 V 755.15928 H 438.25066 Z" />
    </clipPath>
  <linearGradient
   xlink:href="#swatch7"
   id="linearGradient7"
   x1="49.494968"
   y1="112.59222"
   x2="145.49496"
   y2="112.59222"
   gradientUnits="userSpaceOnUse"
   gradientTransform="matrix(1.1453282,0,0,1.1453282,-14.168766,-16.362818)" /><linearGradient
   xlink:href="#swatch8"
   id="linearGradient8"
   x1="49.494968"
   y1="129.68896"
   x2="145.91562"
   y2="129.68896"
   gradientUnits="userSpaceOnUse"
   gradientTransform="matrix(1.1676979,0,0,1.1676979,-16.349701,-18.881477)" /><linearGradient
   xlink:href="#swatch9"
   id="linearGradient9"
   x1="49.494968"
   y1="130.74133"
   x2="145.91562"
   y2="130.74133"
   gradientUnits="userSpaceOnUse"
   gradientTransform="matrix(1.1676979,0,0,1.1676979,-16.349701,-18.881477)" /></defs>
  <g
   id="layer1"
   transform="translate(-45.788213,-60.885722)">
    
    
    
    
    
  <path
   id="rect7"
   style="fill:url(#linearGradient7);stroke:none;stroke-width:4.37887;paint-order:markers fill stroke"
   d="M 97.495161,65.856875 A 46.735471,46.735471 0 0 0 50.759322,112.59212 46.735471,46.735471 0 0 0 97.495161,159.32795 46.735471,46.735471 0 0 0 144.2304,112.59212 46.735471,46.735471 0 0 0 97.495161,65.856875 Z" /><path
   id="path21"
   style="display:inline;fill:url(#linearGradient8);stroke-width:1.42083;stroke-miterlimit:5.5;paint-order:markers stroke fill"
   d="m 91.088602,96.470416 c -0.958429,-0.0016 -2.366863,0.207022 -4.112943,0.579288 -2.076097,0.442626 -4.644972,1.065082 -7.471603,1.942421 -4.410984,1.369105 -18.377911,7.900975 -28.701892,11.610485 a 46.735471,46.735471 0 0 0 -0.04284,1.98951 46.735471,46.735471 0 0 0 46.735839,46.73583 46.735471,46.735471 0 0 0 46.735237,-46.73583 46.735471,46.735471 0 0 0 -0.19128,-4.22157 C 129.47213,103.2921 102.66411,96.490086 91.088602,96.470416 Z" /><path
   id="path28"
   style="display:inline;fill:url(#linearGradient9);stroke:none;stroke-width:2.07325;stroke-miterlimit:5.5;stroke-dasharray:none;paint-order:fill markers stroke"
   d="m 51.385676,120.21819 a 46.735471,46.735471 0 0 0 0.619114,3.09074 c 33.055827,3.77617 67.20559,3.75982 76.35373,6.59181 4.32727,1.21963 7.79005,2.53453 10.65105,4.15579 a 46.735471,46.735471 0 0 0 3.52219,-8.97896 c -7.56911,-2.69493 -18.40238,-4.36043 -31.61522,-3.92769 -11.424236,0.37417 -35.068212,0.60871 -59.530864,-0.93169 z" /><path
   id="ellipse13"
   style="display:inline;fill:none;stroke:#000000;stroke-width:2.52907;stroke-miterlimit:5.5;paint-order:fill markers stroke"
   d="M 144.23043,112.59222 A 46.735461,46.597508 0 0 1 97.494972,159.18973 46.735461,46.597508 0 0 1 50.759511,112.59222 46.735461,46.597508 0 0 1 97.494972,65.994708 46.735461,46.597508 0 0 1 144.23043,112.59222 Z" /></g>
</svg>
